<svg xmlns="http://www.w3.org/2000/svg" viewBox="0 0 500 500"><g id="freepik--background-simple--inject-31"><path d="M403,127.11c-63.69-53.77-183.41-55.74-223.69,26.25-9,18.23-8.6,39.85-22.83,56-11.66,13.2-38.39,13.22-58.83,27.9-39.16,28.13-47.95,98.83,10.38,116.33,41.93,12.59,89.16-23.85,125.57-36.19,44-14.93,82,1.95,125.75-7.51C445.14,291.29,468.93,182.75,403,127.11Z" style="fill:#407BFF"></path><path d="M403,127.11c-63.69-53.77-183.41-55.74-223.69,26.25-9,18.23-8.6,39.85-22.83,56-11.66,13.2-38.39,13.22-58.83,27.9-39.16,28.13-47.95,98.83,10.38,116.33,41.93,12.59,89.16-23.85,125.57-36.19,44-14.93,82,1.95,125.75-7.51C445.14,291.29,468.93,182.75,403,127.11Z" style="fill:#fff;opacity:0.9"></path></g><g id="freepik--Shadow--inject-31"><ellipse id="freepik--path--inject-31" cx="250" cy="416.24" rx="193.89" ry="11.32" style="fill:#f5f5f5"></ellipse></g><g id="freepik--Character--inject-31"><path d="M235.17,182.31c-1.44,5.49-3,10.91-4.73,16.32q-1.26,4.06-2.66,8.11c-.92,2.7-1.89,5.39-3,8.14l-.27.67c-.12.3-.25.56-.38.83a16.33,16.33,0,0,1-.86,1.45,16.52,16.52,0,0,1-1.87,2.29,29.53,29.53,0,0,1-3.89,3.31,54.69,54.69,0,0,1-7.93,4.62,95.66,95.66,0,0,1-16.42,6.07l-2.11-5.5c2.37-1.31,4.83-2.65,7.18-4.06s4.7-2.81,6.92-4.31a55.53,55.53,0,0,0,6.17-4.65,18.43,18.43,0,0,0,2.32-2.41,8.31,8.31,0,0,0,.7-1.06,2.26,2.26,0,0,0,.17-.38.63.63,0,0,0,0-.14l0-.08.07-.24c1.56-5.16,3-10.62,4.49-16s3-10.8,4.56-16.16Z" style="fill:#ffb573"></path><path d="M237.78,176.48c3.46,7-7.61,29.87-7.61,29.87L216,200.73a81,81,0,0,1,4-20.39C223.59,170.38,233.94,168.73,237.78,176.48Z" style="fill:#407BFF"></path><path d="M238.13,177.37c-3.35-1.12-6.75.57-9.59,7S224,201.08,224.12,204l6,2.39S240.52,185.14,238.13,177.37Z" style="opacity:0.2"></path><path d="M192.45,228.27l-5.5.13a5,5,0,0,0-4.84,5.44h0a5,5,0,0,0,7.86,3.59,24.33,24.33,0,0,0,4.31-3.8Z" style="fill:#ffb573"></path><path d="M191.41,228.26a26.53,26.53,0,0,1,2.5,5.68.53.53,0,0,0,.58.36,13.12,13.12,0,0,0,4.86-1.65.48.48,0,0,0,.15-.48c-.49-2.11-2.55-6.59-3.71-6.61-.95,0-3.26,1.38-4.23,2A.49.49,0,0,0,191.41,228.26Z" style="fill:#263238"></path><path d="M227.51,172.12s-6.57,25.56,8,69.9l43.22-5.25c-.51-6.67-8.61-38.53-6-70.56a113,113,0,0,0-14.69-.07,159.48,159.48,0,0,0-18.37,2.23A81.75,81.75,0,0,0,227.51,172.12Z" style="fill:#407BFF"></path><path d="M246.86,190.18h0a.12.12,0,0,1-.09-.15c1.27-4.53-.75-6.65-3.82-9.88a43.53,43.53,0,0,1-7.4-9.78c-5.06-9.35-.13-13.09,3.13-15.56a15.43,15.43,0,0,0,1.79-1.49.12.12,0,1,1,.18.17,15.59,15.59,0,0,1-1.81,1.52c-3.2,2.42-8,6.08-3.07,15.24A43,43,0,0,0,243.1,180c3.13,3.28,5.19,5.45,3.88,10.11A.13.13,0,0,1,246.86,190.18Z" style="fill:#fff"></path><path d="M253.71,145.67c-.44,6.05-.28,17,4.33,20.47a56.85,56.85,0,0,0-14.43,12.06c-2.15-3.43-3.89-6.78-3.94-9.83,6.4-2.38,5.64-7.25,3.93-11.7Z" style="fill:#ffb573"></path><path d="M249.59,150.16l-6,6.5a20.16,20.16,0,0,1,1,3.2c2.47-.67,5.6-3.86,5.54-6.53A8.71,8.71,0,0,0,249.59,150.16Z" style="opacity:0.2"></path><path d="M232.28,127.44c-5.76,3.31-1.63,16.81,1.25,17.85C238.93,147.23,239.43,123.34,232.28,127.44Z" style="fill:#263238"></path><path d="M253.33,136.69c.48,8.06,1.17,12.76-2.37,17.36-5.33,6.92-15.66,4.45-18.54-3.31-2.59-7-2.94-19,4.51-23.13A11,11,0,0,1,253.33,136.69Z" style="fill:#ffb573"></path><path d="M259.06,129.61c.77,4.68-3,17.87-6.42,18s-5.27-7.08-4.38-13.88c-3.23-.55-22.94,2-20.44-6.39,2.31-7.74,13.84-4.11,21.71-9.21.6,3.07-2.82,5.84-1.12,5.34,7-2.07,9.9,2.34,14.79.11A8.71,8.71,0,0,1,259.06,129.61Z" style="fill:#263238"></path><path d="M258,145.07a7.7,7.7,0,0,1-4.34,4c-2.54.89-4-1.34-3.43-3.83.51-2.24,2.44-5.41,5.06-5.22S259.06,142.81,258,145.07Z" style="fill:#ffb573"></path><path d="M235.52,242s-15.39,51.09-17.2,75.86c-1.88,25.77-8.15,90.92-8.15,90.92l6.32,1.9s21.47-60,22.31-85.34c.55-16.59,30.27-87.41,30.27-87.41Z" style="fill:#ffb573"></path><path d="M209.59,403.46l8.32,3.8a.7.7,0,0,1,.4.79l-1.54,7.25a1.2,1.2,0,0,1-1.69.82c-2.88-1.37-4.21-2.19-7.87-3.86-2.25-1-10.27-4.4-13.38-5.82s-2.11-4.67-.71-4.37c6.28,1.35,12.48,2.11,15.06,1.3A2,2,0,0,1,209.59,403.46Z" style="fill:#263238"></path><path d="M205.24,401.67a1.3,1.3,0,0,1,.08-.17.65.65,0,0,1,.56-.38c1-.05,2.64,2.34,3,2.82a.23.23,0,0,1,0,.25.21.21,0,0,1-.23.1c-1-.2-2.87-.69-3.34-1.67A1.16,1.16,0,0,1,205.24,401.67Zm2.88,2.05c-.73-1-1.74-2.16-2.22-2.14-.05,0-.11,0-.17.13a.78.78,0,0,0-.06.72A3.81,3.81,0,0,0,208.12,403.72Z" style="fill:#407BFF"></path><path d="M207.58,400.51l.09-.17a.69.69,0,0,1,.81-.22,1.11,1.11,0,0,1,.67.59c.54,1.11-.26,3.34-.29,3.43a.21.21,0,0,1-.18.15.23.23,0,0,1-.22-.09C207.92,403.48,207.23,401.41,207.58,400.51Zm1,3a4.55,4.55,0,0,0,.16-2.61.67.67,0,0,0-.39-.35c-.22-.07-.28,0-.3.05C207.76,401,208.11,402.59,208.58,403.52Z" style="fill:#407BFF"></path><path d="M235.52,242s-6.4,20-8.39,29.28c4.06.35,23.12,6.17,26.93,8.5,2.33-4.23,13.64-41.69,13.64-41.69Z" style="fill:#263238"></path><path d="M255.53,251.83c-1.18,4.47-2.73,15.49.61,22.66,1.49-4.23,3.44-10.27,5.33-16.21C259.53,254.26,256.39,248.56,255.53,251.83Z" style="opacity:0.2"></path><path d="M227,268.21a12.41,12.41,0,0,0-1,4.26c3.12.6,23.53,6.93,27.28,8.92,1.82-1.34,2.09-4.23,2.19-4.19S238.52,269.8,227,268.21Z" style="fill:#407BFF"></path><path d="M227,268.21a12.41,12.41,0,0,0-1,4.26c3.12.6,23.53,6.93,27.28,8.92,1.82-1.34,2.09-4.23,2.19-4.19S238.52,269.8,227,268.21Z" style="fill:#fff;opacity:0.2"></path><path d="M247.41,240.58S271.82,306.2,284,327.52c12.92,22.7,66.8-19.17,66.8-19.17l-4.84-5.07S314.35,317,301.86,316c-12.28-23-23.12-79.24-23.12-79.24Z" style="fill:#ffb573"></path><path d="M246.62,240.67s11.47,29.57,14.3,38.6c3.71-1.7,23.63-6,28.09-5.87-.06-4.84-10.27-36.63-10.27-36.63Z" style="fill:#263238"></path><path d="M269.55,240.72a.14.14,0,0,1-.12-.09c-2.69-8.7-8.64-15.31-13.89-21.14-6.37-7.08-11.87-13.19-11-21.38.63-6.18,3-9.82,5.11-13,3-4.58,5.36-8.2.74-17.07-6.94-13.3.56-19.77,3.38-22.2a11.52,11.52,0,0,0,.86-.79.12.12,0,0,1,.17,0,.13.13,0,0,1,0,.18c-.18.2-.49.47-.89.82-2.78,2.39-10.16,8.77-3.32,21.9,4.68,9,2.28,12.67-.75,17.32-2.09,3.19-4.45,6.8-5.08,12.91-.83,8.08,4.64,14.16,11,21.19,5.26,5.85,11.23,12.48,13.94,21.24a.12.12,0,0,1-.08.15Z" style="fill:#fff"></path><path d="M256.24,145.11a1.22,1.22,0,1,1-2.12-1.11,1.37,1.37,0,0,1,1.76-.76A1.36,1.36,0,0,1,256.24,145.11Z" style="fill:#fff"></path><path d="M267.4,239.72h8.09a.64.64,0,0,1,.64.64v3.73a0,0,0,0,1,0,0h-9.37a0,0,0,0,1,0,0v-3.73A.64.64,0,0,1,267.4,239.72Z" transform="translate(-38.33 51.53) rotate(-10.13)" style="fill:#fff"></path><path d="M259.68,276.43a12.3,12.3,0,0,0,1.23,4.19c3-1,23.9-5.57,28.14-5.69.93-2.06-.26-4.71-.16-4.72S270.44,272.16,259.68,276.43Z" style="fill:#407BFF"></path><path d="M259.68,276.43a12.3,12.3,0,0,0,1.23,4.19c3-1,23.9-5.57,28.14-5.69.93-2.06-.26-4.71-.16-4.72S270.44,272.16,259.68,276.43Z" style="fill:#fff;opacity:0.2"></path><path d="M351.32,310.15l-7-5.89a.73.73,0,0,1-.17-.88l3.43-6.57a1.2,1.2,0,0,1,1.85-.33c2.4,2.09,3.47,3.24,6.54,5.83,1.9,1.59,8.71,7,11.32,9.2s.78,5.07-.49,4.4c-5.68-3-11.45-5.38-14.15-5.29A2,2,0,0,1,351.32,310.15Z" style="fill:#263238"></path><path d="M355,313l-.12.14a.67.67,0,0,1-.64.22c-1-.23-1.91-3-2.09-3.51a.23.23,0,0,1,.07-.25.23.23,0,0,1,.25,0c1,.48,2.58,1.44,2.77,2.5A1.15,1.15,0,0,1,355,313Zm-2.22-2.75c.43,1.18,1.1,2.55,1.56,2.66a.22.22,0,0,0,.21-.08.78.78,0,0,0,.24-.68C354.71,311.64,354,311,352.8,310.29Z" style="fill:#407BFF"></path><path d="M352.45,313.52a.44.44,0,0,1-.13.14.66.66,0,0,1-.84,0,1.09,1.09,0,0,1-.48-.74c-.23-1.22,1.14-3.15,1.2-3.24a.23.23,0,0,1,.22-.09.24.24,0,0,1,.18.14C352.93,310.58,353,312.76,352.45,313.52Zm-.15-3.16a4.54,4.54,0,0,0-.85,2.47.65.65,0,0,0,.28.44c.19.13.27.07.3,0C352.42,313,352.5,311.38,352.3,310.36Z" style="fill:#407BFF"></path><path d="M241.46,140.4c.08.65-.2,1.22-.62,1.27s-.84-.43-.92-1.08.2-1.23.63-1.28S241.38,139.75,241.46,140.4Z" style="fill:#263238"></path><path d="M234.1,141.29c.08.66-.21,1.23-.63,1.28s-.84-.44-.92-1.09.21-1.22.63-1.27S234,140.64,234.1,141.29Z" style="fill:#263238"></path><path d="M236.48,141.33a23.73,23.73,0,0,1-2.44,6,3.81,3.81,0,0,0,3.19.2Z" style="fill:#ed893e"></path><path d="M239.32,149.06a.19.19,0,0,1-.19-.17.19.19,0,0,1,.17-.21,5.19,5.19,0,0,0,4-2.53.19.19,0,0,1,.26-.09.21.21,0,0,1,.09.26,5.5,5.5,0,0,1-4.27,2.74Z" style="fill:#263238"></path><path d="M243.35,137.76a.39.39,0,0,1-.28-.12,3.07,3.07,0,0,0-2.61-1,.39.39,0,0,1-.14-.76,3.86,3.86,0,0,1,3.31,1.2.4.4,0,0,1,0,.55A.43.43,0,0,1,243.35,137.76Z" style="fill:#263238"></path><path d="M230.52,139.16l-.13,0a.39.39,0,0,1-.24-.49,3.84,3.84,0,0,1,2.49-2.49.38.38,0,0,1,.47.28.39.39,0,0,1-.28.47,3,3,0,0,0-2,2A.38.38,0,0,1,230.52,139.16Z" style="fill:#263238"></path><path d="M279.4,171.86c2.44,4.8,4.58,9.55,6.58,14.51,1,2.48,1.94,5,2.78,7.57a70.46,70.46,0,0,1,2.25,8.12c.14.73.27,1.49.38,2.28a24.18,24.18,0,0,1,.2,2.67,9.25,9.25,0,0,1-1.1,4.42,9.45,9.45,0,0,1-2.66,3.06,14.74,14.74,0,0,1-5.22,2.42,27.92,27.92,0,0,1-4.56.75,57.68,57.68,0,0,1-16.49-1.3l.53-5.86,3.73-.32c1.25-.12,2.49-.27,3.72-.41a61.42,61.42,0,0,0,7.07-1.25,20.11,20.11,0,0,0,3-1,4.38,4.38,0,0,0,1.69-1c.07-.11,0-.1-.18.1a1.73,1.73,0,0,0-.26.67c0,.05,0,0,0-.07l0-.14,0-.29-.13-.69c-.12-.49-.24-1-.39-1.53-.61-2.13-1.42-4.44-2.33-6.72s-1.87-4.6-2.89-6.9c-2-4.6-4.17-9.27-6.29-13.78Z" style="fill:#ffb573"></path><path d="M265,211.93l-3.37-4.34a5,5,0,0,0-7.25-.66h0a5,5,0,0,0,1.79,8.45,25,25,0,0,0,5.61,1.21Z" style="fill:#ffb573"></path><path d="M272.73,166.21c12.44,1.72,16.33,23,16.33,23l-13.84,7.22a68.6,68.6,0,0,1-11.16-15.23C259.15,171.93,264.46,165.06,272.73,166.21Z" style="fill:#407BFF"></path></g></svg>