<svg width="1440" height="1005" viewBox="0 0 1440 1005" fill="none" xmlns="http://www.w3.org/2000/svg">
<path d="M0 54L170 22M170 22L220 38H370L420 22M170 22H420M420 22H520M520 22L570 5H870L920 22M520 22L570 38H870L920 22M920 22H1020M1020 22L1070 38H1220L1270 22M1020 22H1270M1270 22L1440 54" stroke="#67C7EB" stroke-opacity="0.6" stroke-width="10"/>
<path d="M0 950L170 983L220 999L420 966L520 983L570 966H870L920 983L1020 966L1220 999L1270 983L1440 950" stroke="#67C7EB" stroke-opacity="0.6" stroke-width="10"/>
</svg>
